<svg width="24" height="24" viewBox="0 0 24 24" fill="none" xmlns="http://www.w3.org/2000/svg">
<path d="M12 3.5C7.03 3.5 3 7.03 3 11.4C3 13.64 4.05 15.66 5.74 17.1L5 20.5L8.9 18.64C9.88 18.94 10.92 19.1 12 19.1C16.97 19.1 21 15.57 21 11.4C21 7.23 16.97 3.5 12 3.5Z" stroke="#9E9E9E" stroke-width="1.5" stroke-linecap="round" stroke-linejoin="round"/>
<path d="M9.25 11.4C9.25 12.09 8.69 12.65 8 12.65C7.31 12.65 6.75 12.09 6.75 11.4C6.75 10.71 7.31 10.15 8 10.15C8.69 10.15 9.25 10.71 9.25 11.4ZM13.25 11.4C13.25 12.09 12.69 12.65 12 12.65C11.31 12.65 10.75 12.09 10.75 11.4C10.75 10.71 11.31 10.15 12 10.15C12.69 10.15 13.25 10.71 13.25 11.4ZM17.25 11.4C17.25 12.09 16.69 12.65 16 12.65C15.31 12.65 14.75 12.09 14.75 11.4C14.75 10.71 15.31 10.15 16 10.15C16.69 10.15 17.25 10.71 17.25 11.4Z" fill="#9E9E9E"/>
</svg>
